<svg height="512" viewBox="0 0 64 64" width="512" xmlns="http://www.w3.org/2000/svg"><path d="m51 31a1 1 0 0 1 -1-1v-4a1 1 0 0 1 2 0v4a1 1 0 0 1 -1 1z" fill="#57b7eb"/><path d="m46 37h14v24h-14z" fill="#2d72bc"/><path d="m46 29h6v8h-6z" fill="#4891d3"/><path d="m46 41h14v4h-14z" fill="#57b7eb"/><path d="m46 45h14v4h-14z" fill="#4891d3"/><path d="m46 49h14v4h-14z" fill="#2d72bc"/><path d="m46 53h14v4h-14z" fill="#57b7eb"/><path d="m56 37h4v4h-4z" fill="#4891d3"/><path d="m50 45h4v4h-4z" fill="#2d72bc"/><path d="m52 53h4v4h-4z" fill="#4891d3"/><path d="m46 29h6v4h-6z" fill="#2d72bc"/><path d="m4 29h14v32h-14z" fill="#a1d51c"/><path d="m7 45v-16h-3v32h14v-6h-1a10 10 0 0 1 -10-10z" fill="#7ab92d"/><g fill="#57b7eb"><path d="m14 33h4v4h-4z"/><path d="m4 33h6v4h-6z"/><path d="m14 41h4v4h-4z"/><path d="m4 41h6v4h-6z"/><path d="m14 49h4v4h-4z"/><path d="m4 49h6v4h-6z"/></g><path d="m10 52.136a10.02 10.02 0 0 1 -2.162-3.136h-3.838v4h6z" fill="#4891d3"/><path d="m18 37h-4v-4z" fill="#2d72bc"/><path d="m10 37h-6v-4z" fill="#4891d3"/><path d="m18 45h-4v-4z" fill="#2d72bc"/><path d="m10 45h-6v-4z" fill="#4891d3"/><path d="m18 53h-4v-4z" fill="#2d72bc"/><path d="m10 53h-6v-4z" fill="#2d72bc"/><path d="m4 33h3v4h-3z" fill="#4891d3"/><path d="m4 41h3v4h-3z" fill="#4891d3"/><path d="m32 9a1 1 0 0 1 -1-1v-4a1 1 0 0 1 2 0v4a1 1 0 0 1 -1 1z" fill="#fcbc04"/><path d="m18 17h28v40h-28z" fill="#d0d8da"/><path d="m24 30v-13h-6v40h28v-14h-9a13 13 0 0 1 -13-13z" fill="#93999a"/><path d="m26 11h12v6h-12z" fill="#fcbc04"/><path d="m30 7h4v4h-4z" fill="#4891d3"/><path d="m13 57h38v4h-38z" fill="#d0d8da"/><path d="m24 49h16v8h-16z" fill="#2d72bc"/><path d="m22 45h20v4h-20z" fill="#fcbc04"/><path d="m22 21h4v4h-4z" fill="#57b7eb"/><path d="m30 21h4v4h-4z" fill="#57b7eb"/><path d="m38 21h4v4h-4z" fill="#57b7eb"/><path d="m22 29h4v4h-4z" fill="#57b7eb"/><path d="m30 29h4v4h-4z" fill="#57b7eb"/><path d="m38 29h4v4h-4z" fill="#57b7eb"/><path d="m22 37h4v4h-4z" fill="#4891d3"/><path d="m30 37h4v4h-4z" fill="#57b7eb"/><path d="m38 37h4v4h-4z" fill="#57b7eb"/><path d="m26 25h-4v-4z" fill="#4891d3"/><path d="m34 25h-4v-4z" fill="#4891d3"/><path d="m42 25h-4v-4z" fill="#4891d3"/><path d="m26 33h-4v-4z" fill="#4891d3"/><path d="m34 33h-4v-4z" fill="#4891d3"/><path d="m42 33h-4v-4z" fill="#4891d3"/><path d="m26 41h-4v-4z" fill="#2d72bc"/><path d="m34 41h-4v-4z" fill="#4891d3"/><path d="m42 41h-4v-4z" fill="#4891d3"/><path d="m27 51 6 6h7v-2l-4-4z" fill="#4891d3"/><path d="m24 45h18a0 0 0 0 1 0 0v2a0 0 0 0 1 0 0h-16a2 2 0 0 1 -2-2 0 0 0 0 1 0 0z" fill="#f9e109"/><path d="m28 11h10a0 0 0 0 1 0 0v3a0 0 0 0 1 0 0h-7a3 3 0 0 1 -3-3 0 0 0 0 1 0 0z" fill="#f9e109"/><path d="m31 7h3a0 0 0 0 1 0 0v3a0 0 0 0 1 0 0 3 3 0 0 1 -3-3 0 0 0 0 1 0 0z" fill="#57b7eb"/><path d="m15 57h-2v4h38v-2h-34a2 2 0 0 1 -2-2z" fill="#93999a"/><path d="m22 21h2v4h-2z" fill="#4891d3"/><path d="m22 33h2.362a13.015 13.015 0 0 1 -.362-3v-1h-2z" fill="#4891d3"/><path d="m24 23-2-2v4h2z" fill="#2d72bc"/><path d="m22 29v4h2.362a13.388 13.388 0 0 1 -.295-1.933z" fill="#2d72bc"/><path d="m31 49h2v8h-2z" fill="#93999a"/><path d="m7 35-3-2v4h3z" fill="#2d72bc"/><path d="m4 41v4h3v-2z" fill="#2d72bc"/></svg>